<svg xmlns="http://www.w3.org/2000/svg" width="30" height="30" viewBox="0 0 30 30"><g><g><path fill="#fff" d="M15.05.38c8.224 0 14.89 6.662 14.89 14.88s-6.666 14.88-14.89 14.88C6.824 30.14.157 23.478.157 15.26S6.825.38 15.05.38zM2.02 15.26c0 7.19 5.833 13.02 13.03 13.02 7.195 0 13.029-5.83 13.029-13.02 0-7.19-5.834-13.02-13.03-13.02S2.02 8.07 2.02 15.26zm17.417-4.383a.885.885 0 0 1 0 1.252l-3.134 3.132 3.133 3.13a.885.885 0 1 1-1.254 1.253l-3.133-3.13-3.132 3.13a.887.887 0 0 1-1.254-1.252l3.133-3.13-3.134-3.133a.885.885 0 1 1 1.253-1.252l3.134 3.132 3.135-3.132a.886.886 0 0 1 1.253 0z"/><path fill="#333" d="M15.05.38c8.224 0 14.89 6.662 14.89 14.88s-6.666 14.88-14.89 14.88C6.824 30.14.157 23.478.157 15.26S6.825.38 15.05.38zM2.02 15.26c0 7.19 5.833 13.02 13.03 13.02 7.195 0 13.029-5.83 13.029-13.02 0-7.19-5.834-13.02-13.03-13.02S2.02 8.07 2.02 15.26zm17.417-4.383a.885.885 0 0 1 0 1.252l-3.134 3.132 3.133 3.13a.885.885 0 1 1-1.254 1.253l-3.133-3.13-3.132 3.13a.887.887 0 0 1-1.254-1.252l3.133-3.13-3.134-3.133a.885.885 0 1 1 1.253-1.252l3.134 3.132 3.135-3.132a.886.886 0 0 1 1.253 0z"/></g></g></svg>