<svg xmlns="http://www.w3.org/2000/svg" width="60" height="61" viewBox="0 0 60 61"><g><g><path fill="#939393" d="M30.194 60.782C14.02 61.09.176 47.27.377 30.585.576 14.1 13.731.625 30.06.727 46.844.831 59.808 13.96 59.878 30.961c.07 16.722-13.774 30.013-29.684 29.821zm-27.651-30.2C2.509 45.992 14.84 58.59 29.998 58.63c15.182.04 27.588-12.486 27.768-27.784C57.94 16.12 45.325 2.828 30.201 2.962c-15.21.134-27.625 12.382-27.658 27.62zm36.994-2.331c3.81.212 3.848.212 3.798 3.948-.05 3.779.135 7.6-.365 11.323-.707 5.257-4.033 8.88-9.042 9.946-8.67 1.845-16.471-3.838-16.9-12.868-.244-5.142-.046-10.305-.047-15.46 0-2.724.001-2.722 2.67-2.797.338-.01.676-.057 1.206-.103 0-1.657-.008-3.24.002-4.822.032-5.318 3.954-9.199 9.305-9.218 5.339-.018 9.33 3.855 9.369 9.128.025 3.602.004 7.204.004 10.923zm-7.846 23.073c0-5.372.23-10.65-.065-15.897-.294-5.206-3.669-9.153-8.19-10.41-4.023-1.12-4.287-.926-4.285 3.151 0 .297-.005.593.001.889.084 4.319-.154 8.675.333 12.947.679 5.95 6.432 10.196 12.206 9.32zm2.152-4.416c2.432-1.504 3.505-3.457 3.52-5.914.045-7.883.04-15.767.006-23.65-.012-2.757-1.7-5.767-5.042-6.624-4.527-1.162-8.909 1.567-9.285 6.082-.157 1.878-.026 3.78-.026 5.688.365.144.628.256.898.351 6.746 2.394 9.927 6.936 9.929 14.185v9.882zm7.372-16.2c-.301-.125-.603-.249-.905-.372-.26.48-.732.956-.744 1.443-.073 2.955-.07 5.913-.035 8.869.043 3.707-1.536 6.43-4.655 8.354-.559.345-.855 1.123-1.273 1.7l.49.37c3.268-1.085 5.836-3.289 6.353-6.655.692-4.502.552-9.134.77-13.71zM27.202 15.113l1.701 1.559c-.524.421-1.064 1.197-1.567 1.173-.629-.03-1.227-.718-1.839-1.122.49-.461.978-.923 1.705-1.61zm-.057 7.908l-1.633-1.733c.638-.356 1.26-.94 1.92-.99.465-.033.982.661 1.477 1.03l-1.764 1.693zm5.984-5.923l-1.52-1.457c.562-.376 1.114-1.03 1.685-1.047.522-.017 1.065.656 1.599 1.025l-1.764 1.48zm.274 6.154l1.488 1.566c-.503.368-1.02 1.048-1.505 1.025-.6-.03-1.171-.642-1.755-1.003l1.772-1.588zm.067-1.552l-1.903-1.407c.624-.386 1.222-1.002 1.88-1.077.436-.05.959.676 1.443 1.054l-1.42 1.43z"/></g></g></svg>