<svg xmlns="http://www.w3.org/2000/svg" width="50" height="50" viewBox="0 0 50 50"><defs><clipPath id="12bja"><path fill="#fff" d="M25 0c13.807 0 25 11.193 25 25S38.807 50 25 50 0 38.807 0 25 11.193 0 25 0z"/></clipPath></defs><g><g><path fill="none" stroke="#f4f4f4" stroke-miterlimit="20" stroke-width="2" d="M25 0c13.807 0 25 11.193 25 25S38.807 50 25 50 0 38.807 0 25 11.193 0 25 0z" clip-path="url(&quot;#12bja&quot;)"/></g><g><path d="M32.783 20.011c-2.136 0-3.845.616-5.129 1.847-1.284 1.23-1.926 2.963-1.926 5.197v3.928h-4.721v5.332h4.721V49.99h5.666V36.315h4.703l.722-5.332h-5.425v-3.405c0-.865.185-1.514.556-1.946.37-.432 1.086-.648 2.148-.648h2.907v-4.757c-1-.144-2.407-.216-4.222-.216z"/><path fill="#f4f4f4" d="M32.783 20.011c-2.136 0-3.845.616-5.129 1.847-1.284 1.23-1.926 2.963-1.926 5.197v3.928h-4.721v5.332h4.721V49.99h5.666V36.315h4.703l.722-5.332h-5.425v-3.405c0-.865.185-1.514.556-1.946.37-.432 1.086-.648 2.148-.648h2.907v-4.757c-1-.144-2.407-.216-4.222-.216z"/></g></g></svg>