<svg xmlns="http://www.w3.org/2000/svg" width="50" height="50" viewBox="0 0 50 50"><defs><clipPath id="oljca"><path fill="#fff" d="M25 0c13.807 0 25 11.193 25 25S38.807 50 25 50 0 38.807 0 25 11.193 0 25 0z"/></clipPath></defs><g><g><path fill="none" stroke="#f4f4f4" stroke-miterlimit="20" stroke-width="2" d="M25 0c13.807 0 25 11.193 25 25S38.807 50 25 50 0 38.807 0 25 11.193 0 25 0z" clip-path="url(&quot;#oljca&quot;)"/></g><g><path d="M26.898 27.352c0 .432.196.855.587 1.27.39.414.864.822 1.42 1.225a23.24 23.24 0 0 1 1.66 1.324c.55.48 1.02 1.105 1.411 1.874.391.768.587 1.62.587 2.558 0 1.08-.294 2.12-.88 3.116-.88 1.466-2.17 2.543-3.868 3.234-1.699.69-3.52 1.036-5.463 1.036-1.613 0-3.12-.25-4.518-.747-1.4-.499-2.448-1.325-3.144-2.478a4.354 4.354 0 0 1-.678-2.36c0-.973.271-1.873.815-2.702.544-.829 1.268-1.52 2.173-2.072 1.6-.984 4.07-1.585 7.405-1.801-.39-.505-.681-.949-.87-1.334a2.932 2.932 0 0 1-.285-1.315c0-.432.129-.942.385-1.531-.562.048-.977.072-1.246.072-1.809 0-3.333-.58-4.574-1.738-1.24-1.16-1.86-2.628-1.86-4.405 0-.985.22-1.94.66-2.865a6.952 6.952 0 0 1 1.814-2.36c.941-.792 2.056-1.38 3.346-1.765a13.889 13.889 0 0 1 3.987-.577h7.662l-2.53 1.586h-2.4c.903.756 1.588 1.555 2.052 2.396.465.84.697 1.801.697 2.882 0 .865-.15 1.643-.45 2.333-.299.691-.66 1.25-1.08 1.676-.422.426-.847.817-1.275 1.17a7.173 7.173 0 0 0-1.09 1.109c-.3.384-.45.78-.45 1.189zm-2.676-1.73c.464 0 .941-.099 1.43-.297.489-.198.892-.46 1.21-.784.647-.684.971-1.64.971-2.864 0-.697-.104-1.447-.311-2.252a11.3 11.3 0 0 0-.89-2.333 5.408 5.408 0 0 0-1.548-1.865c-.648-.492-1.363-.739-2.145-.739-.513 0-1.018.118-1.513.352-.494.234-.895.55-1.2.946-.575.708-.862 1.669-.862 2.882 0 .553.061 1.138.184 1.757.122.618.314 1.237.577 1.855a7.78 7.78 0 0 0 .953 1.667c.373.492.831.894 1.375 1.207a3.49 3.49 0 0 0 1.77.468zm.037 15.728c.708 0 1.39-.079 2.044-.235a7.021 7.021 0 0 0 1.814-.702 3.573 3.573 0 0 0 1.339-1.315c.336-.565.504-1.22.504-1.964 0-.3-.043-.595-.129-.883a7.202 7.202 0 0 0-.265-.756c-.092-.217-.257-.466-.495-.748a41.99 41.99 0 0 0-.541-.63c-.122-.138-.358-.346-.706-.622s-.571-.45-.669-.523a63.84 63.84 0 0 0-.76-.54l-.67-.469a7.95 7.95 0 0 0-.88-.035c-.648 0-1.29.042-1.924.126-.636.084-1.293.234-1.971.45a7.098 7.098 0 0 0-1.778.829 4.055 4.055 0 0 0-1.256 1.342c-.33.558-.495 1.192-.495 1.9 0 .841.214 1.583.642 2.226a4.386 4.386 0 0 0 1.677 1.495c.69.354 1.418.618 2.181.792.764.174 1.543.262 2.338.262zm14.848-15.782h3.905v1.946h-3.905v3.945h-1.925v-3.945h-3.886v-1.946h3.886v-3.91h1.925z"/><path fill="#f4f4f4" d="M26.898 27.352c0 .432.196.855.587 1.27.39.414.864.822 1.42 1.225a23.24 23.24 0 0 1 1.66 1.324c.55.48 1.02 1.105 1.411 1.874.391.768.587 1.62.587 2.558 0 1.08-.294 2.12-.88 3.116-.88 1.466-2.17 2.543-3.868 3.234-1.699.69-3.52 1.036-5.463 1.036-1.613 0-3.12-.25-4.518-.747-1.4-.499-2.448-1.325-3.144-2.478a4.354 4.354 0 0 1-.678-2.36c0-.973.271-1.873.815-2.702.544-.829 1.268-1.52 2.173-2.072 1.6-.984 4.07-1.585 7.405-1.801-.39-.505-.681-.949-.87-1.334a2.932 2.932 0 0 1-.285-1.315c0-.432.129-.942.385-1.531-.562.048-.977.072-1.246.072-1.809 0-3.333-.58-4.574-1.738-1.24-1.16-1.86-2.628-1.86-4.405 0-.985.22-1.94.66-2.865a6.952 6.952 0 0 1 1.814-2.36c.941-.792 2.056-1.38 3.346-1.765a13.889 13.889 0 0 1 3.987-.577h7.662l-2.53 1.586h-2.4c.903.756 1.588 1.555 2.052 2.396.465.84.697 1.801.697 2.882 0 .865-.15 1.643-.45 2.333-.299.691-.66 1.25-1.08 1.676-.422.426-.847.817-1.275 1.17a7.173 7.173 0 0 0-1.09 1.109c-.3.384-.45.78-.45 1.189zm-2.676-1.73c.464 0 .941-.099 1.43-.297.489-.198.892-.46 1.21-.784.647-.684.971-1.64.971-2.864 0-.697-.104-1.447-.311-2.252a11.3 11.3 0 0 0-.89-2.333 5.408 5.408 0 0 0-1.548-1.865c-.648-.492-1.363-.739-2.145-.739-.513 0-1.018.118-1.513.352-.494.234-.895.55-1.2.946-.575.708-.862 1.669-.862 2.882 0 .553.061 1.138.184 1.757.122.618.314 1.237.577 1.855a7.78 7.78 0 0 0 .953 1.667c.373.492.831.894 1.375 1.207a3.49 3.49 0 0 0 1.77.468zm.037 15.728c.708 0 1.39-.079 2.044-.235a7.021 7.021 0 0 0 1.814-.702 3.573 3.573 0 0 0 1.339-1.315c.336-.565.504-1.22.504-1.964 0-.3-.043-.595-.129-.883a7.202 7.202 0 0 0-.265-.756c-.092-.217-.257-.466-.495-.748a41.99 41.99 0 0 0-.541-.63c-.122-.138-.358-.346-.706-.622s-.571-.45-.669-.523a63.84 63.84 0 0 0-.76-.54l-.67-.469a7.95 7.95 0 0 0-.88-.035c-.648 0-1.29.042-1.924.126-.636.084-1.293.234-1.971.45a7.098 7.098 0 0 0-1.778.829 4.055 4.055 0 0 0-1.256 1.342c-.33.558-.495 1.192-.495 1.9 0 .841.214 1.583.642 2.226a4.386 4.386 0 0 0 1.677 1.495c.69.354 1.418.618 2.181.792.764.174 1.543.262 2.338.262zm14.848-15.782h3.905v1.946h-3.905v3.945h-1.925v-3.945h-3.886v-1.946h3.886v-3.91h1.925z"/></g></g></svg>