<svg xmlns="http://www.w3.org/2000/svg" width="33" height="34" viewBox="0 0 33 34"><g><g><path fill="#333" d="M16.502 34.075C7.53 34.246-.152 26.555-.04 17.269.07 8.094 7.37.596 16.427.652 25.74.71 32.932 8.017 32.972 17.479c.038 9.305-7.643 16.703-16.47 16.596zM1.161 17.267c-.019 8.576 6.823 15.588 15.232 15.61C24.817 32.9 31.7 25.928 31.8 17.415c.096-8.196-6.903-15.593-15.294-15.52C8.067 1.97 1.18 8.788 1.161 17.268zm20.525-1.297c2.113.118 2.135.118 2.107 2.197-.027 2.103.075 4.23-.202 6.302-.392 2.926-2.238 4.942-5.017 5.535-4.81 1.027-9.139-2.136-9.376-7.161-.135-2.862-.026-5.735-.026-8.604 0-1.516 0-1.515 1.48-1.557.188-.005.376-.032.67-.057 0-.922-.004-1.803 0-2.684.019-2.96 2.195-5.12 5.164-5.13 2.962-.01 5.177 2.146 5.198 5.08.014 2.005.002 4.01.002 6.079zm-4.353 12.84c0-2.989.128-5.926-.036-8.846-.163-2.897-2.036-5.094-4.544-5.794-2.232-.623-2.379-.515-2.377 1.754 0 .165-.003.33 0 .495.047 2.403-.085 4.828.185 7.205.376 3.31 3.568 5.674 6.772 5.187zm1.194-2.457c1.349-.837 1.944-1.924 1.952-3.291.026-4.388.023-8.775.004-13.162-.006-1.534-.943-3.21-2.797-3.686-2.512-.647-4.943.872-5.152 3.385-.087 1.045-.014 2.103-.014 3.165.202.08.348.142.498.195 3.743 1.332 5.508 3.86 5.509 7.894v5.5zm4.09-9.016l-.502-.207c-.144.268-.406.533-.413.804-.04 1.644-.039 3.29-.02 4.935.025 2.064-.852 3.58-2.582 4.65-.31.192-.474.624-.706.946l.271.205c1.814-.603 3.239-1.83 3.525-3.703.384-2.505.307-5.083.427-7.63zm-7.774-8.678l.943.868c-.29.234-.59.666-.87.652-.348-.016-.68-.4-1.02-.624l.947-.896zm-.032 4.401l-.906-.965c.354-.197.699-.523 1.065-.55.258-.019.545.367.82.573l-.98.942zm3.32-3.296l-.843-.811c.311-.21.617-.573.935-.583.29-.01.59.365.886.57l-.978.824zm.152 3.425l.825.871c-.279.205-.566.583-.834.57-.333-.016-.65-.357-.975-.557l.984-.884zm.037-.864l-1.056-.783c.346-.215.678-.558 1.043-.6.242-.027.532.376.8.587l-.787.796z"/></g></g></svg>