<svg xmlns="http://www.w3.org/2000/svg" width="33" height="34" viewBox="0 0 33 34"><g><g><path fill="#333" d="M16.496.605c9.124-.01 16.598 7.512 16.502 16.774-.098 9.431-7.388 16.623-16.43 16.68-9.093.057-16.636-7.516-16.59-16.713C.025 8.01 7.281.614 16.496.605zm-.018 32.185c8.371.035 15.212-6.834 15.273-15.336.061-8.589-6.731-15.58-15.195-15.64C8.265 1.755 1.333 8.711 1.162 16.985c-.175 8.431 6.79 15.977 15.316 15.805zm9.802-10.844c-.073.452-.213.905-.202 1.355.011.49.062 1.028.273 1.455.386.78.366 1.424-.24 2.06-.765.803-1.434.925-2.245.57-.482-.21-1.094-.346-1.594-.245-2.689.54-5.194-.794-6.166-3.445-.26-.708-.597-1.13-1.343-1.375-1.6-.525-2.735-1.624-3.22-3.294-.205-.706-.617-1.048-1.29-1.3-2.771-1.038-4.01-3.458-3.41-6.373.093-.45-.014-1.043-.246-1.439-.52-.885-.307-1.56.34-2.208.627-.627 1.267-.948 2.168-.428.42.243 1.044.364 1.507.25 2.89-.704 5.574 1.158 6.298 3.51.153.497.716 1.027 1.212 1.222 1.624.638 2.77 1.715 3.3 3.373.231.721.608 1.05 1.292 1.283 2.222.756 3.514 2.654 3.566 5.029zm-.776 3.851l-.401-.105c-.08-.837-.373-1.723-.2-2.502.535-2.395-.534-4.466-2.844-5.16-.866-.261-1.47-.795-1.709-1.712-.388-1.496-1.356-2.439-2.788-2.888-.95-.299-1.514-.91-1.825-1.866-.714-2.203-2.582-3.321-4.791-2.818-.872.198-1.64.257-2.412-.274-.139-.095-.509-.022-.648.109-.143.134-.26.528-.172.648.605.834.512 1.688.3 2.632-.467 2.077.627 3.997 2.63 4.653 1.085.355 1.743.996 2.058 2.13.347 1.247 1.216 2.145 2.437 2.494 1.126.322 1.747.974 2.113 2.071.696 2.085 2.608 3.177 4.701 2.693 1.008-.233 1.923-.251 2.777.526l.774-.631zm-8.988-11.329c1.6.011 2.833 1.296 2.796 2.917-.035 1.548-1.305 2.811-2.834 2.816-1.591.005-2.825-1.267-2.815-2.902.01-1.643 1.218-2.842 2.853-2.83zm-.087 1.203c-.828.027-1.58.843-1.561 1.693.018.838.836 1.64 1.645 1.615.807-.026 1.565-.862 1.545-1.705-.02-.885-.778-1.63-1.63-1.603zm1.764 6.226c0-1.667 1.168-2.853 2.808-2.849a2.86 2.86 0 0 1 2.856 2.863c-.006 1.554-1.321 2.866-2.872 2.864-1.597-.003-2.791-1.233-2.792-2.878zm2.848-1.667c-.788-.03-1.646.79-1.678 1.603-.032.82.742 1.675 1.557 1.721.843.048 1.613-.702 1.64-1.596.028-.898-.673-1.695-1.519-1.728zM9.197 12.754c.01-1.535 1.283-2.823 2.795-2.828 1.57-.005 2.856 1.283 2.87 2.875a2.84 2.84 0 0 1-2.864 2.86c-1.6-.007-2.812-1.265-2.8-2.907zm1.2.049c-.009.856.764 1.652 1.609 1.658.85.006 1.61-.76 1.625-1.637.014-.856-.745-1.642-1.603-1.661-.81-.018-1.624.8-1.632 1.64z"/></g></g></svg>