<svg xmlns="http://www.w3.org/2000/svg" width="34" height="34" viewBox="0 0 34 34"><g><g><path fill="#333" d="M.66 17.329C.664 7.994 7.977.596 17.197.599 26.285.605 33.69 8.104 33.62 17.367c-.07 9.268-7.375 16.676-16.608 16.714C8.019 34.116.656 26.533.66 17.329zm16.436 15.456c8.423.14 15.332-6.906 15.334-15.512C32.432 8.83 25.506 1.82 17.14 1.81 8.739 1.8 1.823 8.82 1.839 17.346c.016 8.53 6.855 15.451 15.258 15.44zm3.51-18.868c-.014 3.141-2.537 5.07-4.784 4.062-1.675-.752-2.68-3.068-1.966-5.048.482-1.338 1.246-2.587 2-3.801.495-.795 1.746-.917 2.305-.262 1.336 1.562 2.325 3.314 2.446 5.05zM17.02 9.66c-1.107 1.46-2.182 2.918-2.117 4.893.039 1.183.996 2.32 2.01 2.467.928.135 1.94-.675 2.318-1.854.488-1.524-.577-4.248-2.21-5.506zm9.592 9.849c-.066 1.157-.368 2.917-1.547 4.336-1.45 1.747-3.874 2-5.26.643-1.446-1.413-1.346-4.051.267-5.577 1.379-1.303 3.14-1.832 4.928-2.18 1.045-.203 1.674.711 1.612 2.778zm-.965-1.24l-.36-.264c-1.77.223-3.407.777-4.663 2.185-.25.28-.413.674-.526 1.043-.504 1.649.504 2.908 2.184 2.788 1.088-.078 1.909-.667 2.26-1.621.49-1.33.748-2.75 1.105-4.13zm-18.2.845c.04-2.144.863-2.904 2.799-2.2 1.403.511 2.838 1.161 3.994 2.09 1.36 1.094 1.578 2.762.92 4.41-.467 1.167-1.43 1.791-2.664 1.817-1.73.038-3.143-.657-3.848-2.311-.52-1.217-.809-2.534-1.2-3.806zm1.354-1.222c.148 2.077.191 3.996 1.677 5.434.726.702 1.682.923 2.617.523.806-.344 1.277-1.094 1.138-1.99-.1-.65-.33-1.38-.745-1.859-1.164-1.345-2.776-1.817-4.687-2.108z"/></g></g></svg>