<svg xmlns="http://www.w3.org/2000/svg" width="34" height="34" viewBox="0 0 34 34"><g><g><path fill="#333" d="M16.85.73c9.144.005 16.436 7.453 16.427 16.785-.009 9.016-7.144 16.413-15.956 16.565-9.702.166-17.07-7.572-17-16.842C.388 8.128 7.753.725 16.85.73zM1.52 17.293c.075 8.42 6.398 15.648 15.255 15.605 8.654-.042 15.149-6.848 15.302-15.288.155-8.59-6.746-15.626-15.209-15.672C8.518 1.89 1.575 8.839 1.521 17.293zm9.96 4.004c-.277-1.206-.648-2.365-.786-3.552-.157-1.355.157-1.595 1.365-1.576-.207-1.243-.524-2.5-.6-3.772-.094-1.573.466-1.908 1.982-1.39.274.095.543.204.936.352-.583-2.16.089-3.908 1.48-5.439.8-.878 1.261-.868 2.05.05 1.313 1.53 1.902 3.252 1.299 5.335.654-.183 1.216-.388 1.796-.49.714-.125 1.192.252 1.139.974-.106 1.442-.319 2.876-.49 4.34.216.09.924.156 1.1.502.25.495.169 1.197.126 1.803-.034.483-.2.962-.348 1.428-.148.463-.35.908-.557 1.439.38 0 .787-.126.992.027.366.274.88.73.86 1.085-.113 2.106-.6 4.1-2.306 5.549-2.238 1.9-4.816 2.066-7.417 1.185-2.58-.875-3.886-2.93-4.172-5.654-.024-.228-.045-.458-.085-.684-.192-1.094.14-1.496 1.26-1.512.157-.002.315 0 .375 0zm-.362 1.394c-.28 3.032 2.624 5.93 4.924 5.47.266-3.196-2.367-5.671-4.924-5.47zm6.388 5.453c2.542.472 5.324-2.628 4.957-5.442-2.731-.09-5.068 2.638-4.957 5.442zm4.14-10.575c-2.296 0-4.462 2.511-4.064 4.906 1.753.128 4.224-1.924 4.065-4.906zm-5.598 4.884c.43-1.908-1.516-5.072-4.089-4.79.206 2.915 1.846 4.837 4.09 4.79zm.73-9.834c2.031-1.614 1.757-4.659.019-5.769-1.854 1.787-1.862 4.345-.019 5.77zm-.73 4.54c.365-2.51-1.161-4.759-3.33-4.906-.505 2.494 1.725 4.935 3.33 4.905zm4.867-4.944c-2.288.356-3.649 2.375-3.375 4.93 2.04-.126 3.647-2.434 3.375-4.93zM15.977 23.87l.843 1.4.81-1.4h-1.653z"/></g></g></svg>