<svg xmlns="http://www.w3.org/2000/svg" width="50" height="50" viewBox="0 0 50 50"><defs><clipPath id="u6g2a"><path fill="#fff" d="M25 0c13.807 0 25 11.193 25 25S38.807 50 25 50 0 38.807 0 25 11.193 0 25 0z"/></clipPath></defs><g><g><path fill="none" stroke="#f4f4f4" stroke-miterlimit="20" stroke-width="2" d="M25 0c13.807 0 25 11.193 25 25S38.807 50 25 50 0 38.807 0 25 11.193 0 25 0z" clip-path="url(&quot;#u6g2a&quot;)"/></g><g><path d="M14.198 23.685c.131.655.326 1.303.584 1.946.257.643.622 1.21 1.096 1.702a3.673 3.673 0 0 0 1.626 1.01c.18.035.281.053.305.053.264 0 .486-.27.665-.81.18-.54.27-.98.27-1.316 0-.108-.075-.29-.225-.55-.15-.257-.311-.53-.485-.819-.174-.288-.336-.678-.485-1.17a5.226 5.226 0 0 1-.225-1.532c0-2.39.803-4.363 2.408-5.918 1.605-1.555 3.606-2.333 6.002-2.333 2.108 0 3.818.58 5.13 1.738 1.312 1.16 1.968 2.778 1.968 4.855 0 .565-.04 1.162-.117 1.793-.078.63-.198 1.297-.36 2a9.879 9.879 0 0 1-.682 1.99 10.356 10.356 0 0 1-1.007 1.712 4.131 4.131 0 0 1-1.41 1.225c-.563.3-1.174.45-1.833.45-.767 0-1.42-.249-1.959-.747-.539-.498-.808-1.126-.808-1.883 0-.745.263-1.867.79-3.369.527-1.501.791-2.648.791-3.44 0-.745-.204-1.361-.61-1.847-.408-.487-.977-.73-1.708-.73-.959 0-1.75.439-2.372 1.315-.623.877-.934 1.814-.934 2.81 0 1.25.191 2.265.575 3.045-.084.36-.396 1.58-.935 3.657-.539 2.078-.937 3.805-1.195 5.18-.257 1.375-.386 2.615-.386 3.72 0 .372.09 1.501.27 3.387l.161.18.252-.09c.443-.6.814-1.12 1.114-1.558.3-.439.575-.904.826-1.396l.576-1.127c.131-.258.287-.684.467-1.279.18-.594.302-1.02.368-1.279.066-.258.207-.828.422-1.711.216-.883.384-1.558.504-2.027.347.673.922 1.201 1.725 1.586.802.384 1.61.576 2.425.576 1.234 0 2.366-.231 3.397-.694 1.03-.462 1.898-1.08 2.605-1.855a11.12 11.12 0 0 0 1.797-2.694c.491-1.02.85-2.083 1.078-3.188a16.75 16.75 0 0 0 .342-3.387c0-1.922-.51-3.645-1.528-5.17a9.99 9.99 0 0 0-3.97-3.487c-1.63-.798-3.391-1.198-5.284-1.198-1.234 0-2.444.156-3.63.469a12.55 12.55 0 0 0-3.324 1.405 12.628 12.628 0 0 0-2.731 2.216 9.413 9.413 0 0 0-1.86 3 9.962 9.962 0 0 0-.476 5.584z"/><path fill="#f4f4f4" d="M14.198 23.685c.131.655.326 1.303.584 1.946.257.643.622 1.21 1.096 1.702a3.673 3.673 0 0 0 1.626 1.01c.18.035.281.053.305.053.264 0 .486-.27.665-.81.18-.54.27-.98.27-1.316 0-.108-.075-.29-.225-.55-.15-.257-.311-.53-.485-.819-.174-.288-.336-.678-.485-1.17a5.226 5.226 0 0 1-.225-1.532c0-2.39.803-4.363 2.408-5.918 1.605-1.555 3.606-2.333 6.002-2.333 2.108 0 3.818.58 5.13 1.738 1.312 1.16 1.968 2.778 1.968 4.855 0 .565-.04 1.162-.117 1.793-.078.63-.198 1.297-.36 2a9.879 9.879 0 0 1-.682 1.99 10.356 10.356 0 0 1-1.007 1.712 4.131 4.131 0 0 1-1.41 1.225c-.563.3-1.174.45-1.833.45-.767 0-1.42-.249-1.959-.747-.539-.498-.808-1.126-.808-1.883 0-.745.263-1.867.79-3.369.527-1.501.791-2.648.791-3.44 0-.745-.204-1.361-.61-1.847-.408-.487-.977-.73-1.708-.73-.959 0-1.75.439-2.372 1.315-.623.877-.934 1.814-.934 2.81 0 1.25.191 2.265.575 3.045-.084.36-.396 1.58-.935 3.657-.539 2.078-.937 3.805-1.195 5.18-.257 1.375-.386 2.615-.386 3.72 0 .372.09 1.501.27 3.387l.161.18.252-.09c.443-.6.814-1.12 1.114-1.558.3-.439.575-.904.826-1.396l.576-1.127c.131-.258.287-.684.467-1.279.18-.594.302-1.02.368-1.279.066-.258.207-.828.422-1.711.216-.883.384-1.558.504-2.027.347.673.922 1.201 1.725 1.586.802.384 1.61.576 2.425.576 1.234 0 2.366-.231 3.397-.694 1.03-.462 1.898-1.08 2.605-1.855a11.12 11.12 0 0 0 1.797-2.694c.491-1.02.85-2.083 1.078-3.188a16.75 16.75 0 0 0 .342-3.387c0-1.922-.51-3.645-1.528-5.17a9.99 9.99 0 0 0-3.97-3.487c-1.63-.798-3.391-1.198-5.284-1.198-1.234 0-2.444.156-3.63.469a12.55 12.55 0 0 0-3.324 1.405 12.628 12.628 0 0 0-2.731 2.216 9.413 9.413 0 0 0-1.86 3 9.962 9.962 0 0 0-.476 5.584z"/></g></g></svg>