<svg xmlns="http://www.w3.org/2000/svg" width="60" height="61" viewBox="0 0 60 61"><g><g><path fill="#49743f" d="M.577 30.27C.584 13.497 13.766.204 30.383.21 46.764.219 60.11 13.694 59.986 30.338 59.86 46.99 46.692 60.302 30.05 60.37 13.841 60.434.57 46.808.577 30.27zM30.2 58.043c15.182.252 27.634-12.41 27.637-27.874C57.842 15 45.36 2.403 30.282 2.385 15.136 2.368 2.672 14.983 2.7 30.3 2.729 45.63 15.056 58.065 30.2 58.043zm6.327-33.903c-.026 5.644-4.572 9.11-8.623 7.298-3.02-1.35-4.83-5.512-3.544-9.07.87-2.403 2.246-4.649 3.606-6.83.89-1.427 3.146-1.646 4.154-.471 2.408 2.808 4.19 5.956 4.407 9.073zm-6.464-7.652c-1.996 2.623-3.932 5.244-3.815 8.793.07 2.125 1.795 4.168 3.623 4.432 1.672.243 3.497-1.212 4.177-3.33.88-2.74-1.04-7.634-3.985-9.895zm17.288 17.698c-.12 2.079-.662 5.24-2.787 7.791-2.616 3.14-6.983 3.592-9.483 1.155-2.604-2.54-2.424-7.28.483-10.02 2.485-2.342 5.66-3.292 8.881-3.917 1.885-.366 3.018 1.277 2.906 4.991zm-1.738-2.228l-.651-.474c-3.188.4-6.14 1.396-8.404 3.926-.451.504-.743 1.21-.947 1.874-.908 2.962.909 5.225 3.937 5.01 1.96-.14 3.439-1.199 4.073-2.914.884-2.39 1.348-4.94 1.992-7.422zM12.81 33.476c.07-3.852 1.554-5.218 5.043-3.952 2.53.918 5.116 2.086 7.199 3.755 2.452 1.965 2.845 4.962 1.657 7.925-.84 2.095-2.576 3.217-4.8 3.265-3.117.066-5.665-1.182-6.936-4.154-.935-2.186-1.457-4.553-2.163-6.839zm2.44-2.196c.265 3.733.344 7.18 3.022 9.764 1.307 1.262 3.031 1.658 4.717.94 1.453-.618 2.3-1.966 2.05-3.575-.181-1.168-.595-2.48-1.342-3.34-2.097-2.418-5.004-3.266-8.448-3.789z"/></g></g></svg>